# xmcd
#
# Track frame offsets: 
#        150
#        13321
#        31317
#        46839
#        60630
#        75292
#        103078
#        118385
#        163969
#        173006
#        200050
#
# Disc length: 2776 seconds
#
# Revision: 0
# Processed by: cddbd v1.5.2PL0 Copyright (c) Steve Scherf et al.
# Submitted via: ExactAudioCopy v0.99pb4
#
DISCID=920ad60b
DTITLE=pekka airaksinen - garden of death - the field of six destinies
DYEAR=1999
DGENRE=Electronic
TTITLE0=Mando
TTITLE1=Agon
TTITLE2=Pole
TTITLE3=Sight og That
TTITLE4=Greg Z, Burning Jewel
TTITLE5=El Greco
TTITLE6=Question of Five Children
TTITLE7=Greg
TTITLE8=The Year of Ape
TTITLE9=Valkyrie Eleison
TTITLE10=Kulke, kulke, kulke, kulke
EXTD=
EXTT0=
EXTT1=
EXTT2=
EXTT3=
EXTT4=
EXTT5=
EXTT6=
EXTT7=
EXTT8=
EXTT9=
EXTT10=
PLAYORDER=
